<?xml version="1.0" encoding="UTF-8"?>
<svg xmlns="http://www.w3.org/2000/svg" width="800" height="120" viewBox="0 0 800 120" fill="none" role="img" aria-labelledby="t">
  <title id="t">Kontraktus horizontal (dark UI)</title>
  <defs>
    <style><![CDATA[
      .wm{fill:#f3f5f9;font-family:"IBM Plex Sans",Inter,Lato,Lato SemiBold,"DejaVu Sans",system-ui,sans-serif;font-weight:600;font-size:50px;letter-spacing:-0.072em}
    ]]></style>
  </defs>
  <g transform="translate(28,21)">
    <rect x="7.05" y="7" width="67.42" height="60.92" rx="11.08" ry="11.08" stroke="#2a3242" stroke-width="1.05" fill="none" opacity="0.44"/>
    <rect x="10.9" y="10.82" width="67.42" height="60.92" rx="10.82" ry="10.82" stroke="#384252" stroke-width="0.98" fill="none" opacity="0.32"/>
    <rect x="14.72" y="14.62" width="67.42" height="60.92" rx="10.56" ry="10.56" stroke="#4b5569" stroke-width="0.9" fill="none" opacity="0.46"/>
    <rect fill="#f3f5f9" x="17.35" y="23.55" width="12.55" height="49.15" rx="4.72" ry="4.72"/>
    <path fill="#f3f5f9" d="M29.9 34.84 L70.42 19.86 L70.42 33.14 L43.48 52.42 L29.9 42.58 Z"/>
    <path fill="#f3f5f9" d="M29.9 47.04 L71.02 71.02 L71.02 57.54 L43.48 53.76 L29.9 47.04 Z"/>
    <path stroke="#5c697e" opacity="0.42" stroke-width="1.38" stroke-linecap="round" fill="none" d="M20.05 71.92 H43.42"/>
    <path stroke="#6f96ff" opacity="0.88" stroke-width="1.38" stroke-linecap="round" fill="none" d="M43.58 71.92 H53.65"/>
    <rect x="52.92" y="71.42" width="2.05" height="1.08" rx="0.42" fill="#6f96ff" opacity="0.88"/>
  </g>
  <text class="wm" x="140" y="76">Kontraktus</text></svg>
